<svg width="80" height="80" viewBox="0 0 80 80" fill="none" xmlns="http://www.w3.org/2000/svg">
<path d="M38.4085 80H41.6102C41.7172 79.9772 41.8255 79.9603 41.9344 79.9493C45.4909 79.7905 48.9754 79.1988 52.3432 78.0507C63.9027 74.109 72.1071 66.5261 76.9564 55.3022C78.5412 51.6331 79.4544 47.7738 79.8173 43.7898C79.8839 43.04 79.9413 42.2888 80.0033 41.5383V38.4696C79.9853 38.3362 79.9573 38.2094 79.9513 38.078C79.8375 35.3919 79.4404 32.7254 78.7667 30.1227C76.6275 21.9026 72.3346 15.012 65.8665 9.51498C59.3983 4.01798 51.917 0.921238 43.4732 0.15807C39.0058 -0.246738 34.5021 0.118122 30.1581 1.23678C23.7346 2.87787 18.0349 5.90656 13.1557 10.3916C5.48801 17.4403 1.15992 26.1592 0.171395 36.5483C-0.316049 41.6955 0.237691 46.888 1.7996 51.8165C4.54907 60.5472 9.67158 67.5472 17.1671 72.8165C23.1136 76.9927 29.7412 79.3195 36.987 79.8819C37.458 79.9186 37.9342 79.9606 38.4085 80ZM30.3715 32.4596C32.4099 29.9446 35.0107 28.4196 38.205 27.8919C37.7168 23.8225 37.2325 19.7805 36.7483 15.7425C37.9736 15.4249 42.2479 15.4316 43.2664 15.7731C42.7822 19.8065 42.297 23.8483 41.811 27.8986C43.3423 28.1265 44.8164 28.6436 46.1546 29.4223C47.4968 30.2056 48.6798 31.2343 49.6418 32.4549L59.4897 25.0874C60.541 26.3115 62.3826 29.551 62.7108 30.7511L51.4334 35.5744C52.5454 38.609 52.5173 41.6024 51.3667 44.5884L62.7695 49.4676C61.9208 51.4831 60.8144 53.38 59.4777 55.1107L49.5531 47.6684C47.514 50.1247 44.938 51.6084 41.7876 52.1194C42.2845 56.2595 42.7768 60.3636 43.2731 64.4957C41.0766 64.7538 38.9241 64.7625 36.7449 64.4743C37.2425 60.3342 37.7355 56.2315 38.2304 52.1154C35.0514 51.5984 32.484 50.1021 30.4636 47.6711L20.5116 55.1207C19.1936 53.3805 18.1061 51.4773 17.2759 49.4583L28.6593 44.5937C28.0772 43.1573 27.7739 41.6232 27.7655 40.0734C27.7596 38.5381 28.038 37.015 28.5866 35.581C24.7845 33.9539 21.0292 32.3449 17.2739 30.7378C17.7815 29.2001 19.9013 25.6611 20.5876 25.1194L30.3715 32.4596ZM7.34389 56.7425C4.9813 52.3496 3.08495 46.0293 3.29506 38.9526C3.44102 33.4787 4.8207 28.1084 7.33122 23.2421L9.7405 24.4316C9.27359 25.493 8.78666 26.4996 8.37578 27.5423C7.96489 28.585 7.62071 29.6657 7.24184 30.7498C7.73477 30.8919 8.15899 31.0166 8.58389 31.1361L9.89258 31.5063C8.33775 37.1888 8.34042 42.8339 9.89258 48.5003L7.24184 49.2548C7.62804 50.3536 7.97023 51.4309 8.38445 52.4796C8.79867 53.5283 9.28359 54.541 9.74317 55.5837C8.9781 55.9606 8.22303 56.3329 7.46662 56.7045C7.42675 56.7198 7.38571 56.7318 7.34389 56.7405V56.7425ZM70.1261 48.4983C71.6796 42.8205 71.6769 37.1754 70.1261 31.509L72.7335 30.7645C72.1165 28.5818 71.2823 26.4665 70.2435 24.4503L71.4534 23.8539L72.6921 23.2428C75.7351 29.2495 77.0587 35.5899 76.6629 42.2642C76.3587 47.3676 75.0334 52.2032 72.6868 56.7712L70.2428 55.5637C71.2835 53.5451 72.1182 51.4268 72.7341 49.2408L70.1261 48.4983ZM17.546 61.7738C21.7482 66.0253 26.6282 68.8546 32.3086 70.3362C32.0838 71.2382 31.8677 72.1014 31.6495 72.9733C33.8472 73.5284 36.0945 73.8636 38.3585 73.974C38.2998 74.8959 38.2437 75.7752 38.1877 76.6558C33.1623 76.499 26.1493 74.9406 19.6104 70.5444C15.4359 67.7512 11.8763 64.1342 9.15019 59.9153L11.4261 58.4156C12.6724 60.3414 14.1073 62.1384 15.7097 63.7798C16.3247 63.1094 16.923 62.4543 17.546 61.7732V61.7738ZM41.8256 76.6778C41.7689 75.7645 41.7136 74.8846 41.6569 73.974C43.9441 73.8499 46.1646 73.5464 48.3658 72.9733C48.1417 72.0781 47.9269 71.2221 47.7048 70.3382C53.4078 68.8526 58.2978 66.0147 62.498 61.7565L64.3176 63.7698C65.9153 62.1308 67.347 60.3377 68.5919 58.4169L70.8358 59.8992C70.1728 61.3749 66.6829 65.4523 64.1622 67.6604C60.289 71.0645 55.7361 73.6057 50.8058 75.1154C47.8922 76.0171 44.8752 76.542 41.8283 76.6771L41.8256 76.6778ZM32.3099 9.67708C26.6128 11.1621 21.7242 14.002 17.5313 18.2515C16.907 17.563 16.3113 16.9046 15.7044 16.2355C14.1044 17.8763 12.6709 19.6716 11.4247 21.595L9.16887 20.1054C12.2745 15.1501 17.518 9.98862 24.3643 6.77581C28.7024 4.73026 33.4011 3.56006 38.1917 3.33217L38.3591 6.03665C36.0779 6.1614 33.856 6.46827 31.6509 7.04132C31.871 7.92991 32.0864 8.78649 32.3099 9.67708ZM47.7068 9.67708C47.9342 8.77114 48.149 7.91457 48.3678 7.03998C46.1486 6.46627 43.9268 6.16673 41.6582 6.03598C41.7169 5.11336 41.7723 4.24212 41.827 3.37621C44.93 2.97595 53.1057 5.26946 57.6881 7.81516C63.0905 10.8158 67.4849 14.9097 70.8711 20.0967L68.5993 21.5997C67.3664 19.6955 65.9486 17.9176 64.3663 16.2922L62.4193 18.1808C58.2864 13.988 53.3998 11.1621 47.7068 9.67441V9.67708Z" fill="#143d59"/>
</svg>
