<svg width="80" height="80" viewBox="0 0 80 80" fill="none" xmlns="http://www.w3.org/2000/svg">
<path d="M19.4553 6.76543C19.4045 6.8337 19.3585 6.90879 19.3027 6.97433C15.2378 11.7313 12.295 17.0515 10.961 23.1506C10.0381 27.3682 10.2138 31.5408 11.8357 35.5926C13.1189 38.8012 15.0538 41.5907 17.7052 43.8565C19.2801 45.2179 21.1655 46.1895 23.2031 46.6896C26.3285 47.4536 28.9973 46.6343 31.2577 44.4218C32.398 43.3056 33.0406 41.9095 33.5752 40.4622C35.0139 36.5647 34.9818 32.6215 33.8938 28.6558C33.3412 26.6095 32.518 24.6426 31.4452 22.8052C29.9703 20.3004 27.7232 18.6032 25.1087 17.3403C24.8495 17.2146 24.5853 17.0993 24.2863 16.962C24.7951 16.4084 25.2893 15.8697 25.7855 15.3325C26.7836 14.2538 27.7908 13.1827 28.7757 12.0924C28.975 11.8719 29.1179 11.8781 29.3584 12.0044C32.0028 13.3889 34.1266 15.3379 35.8593 17.7164C35.9193 17.799 35.9785 17.883 36.0426 17.9717C36.2601 17.4024 35.7429 14.6129 35.0668 12.8454C34.4323 11.184 33.5787 9.61094 32.5276 8.1663L39.8713 0L47.1313 8.07687C45.1615 11.1421 43.8128 14.3931 43.548 18.1014C43.6553 17.9799 43.7166 17.9199 43.7668 17.8516C45.5588 15.411 47.8241 13.4899 50.472 11.9894C50.633 11.8986 50.7466 11.8398 50.9118 12.0235C52.3539 13.6292 53.8086 15.2239 55.2597 16.8228C55.2897 16.8555 55.3148 16.891 55.3461 16.9341C54.7669 17.2228 54.1787 17.4802 53.6287 17.7977C50.1335 19.8266 47.7734 22.7412 46.5486 26.5415C45.6425 29.3269 45.1448 32.1716 45.2243 35.0983C45.3037 38.025 45.9101 40.8158 47.5864 43.2906C49.292 45.8083 51.6952 47.1197 54.8123 47.0221C56.6056 46.9655 58.2178 46.3005 59.7547 45.4335C62.0158 44.1569 63.7764 42.3792 65.2366 40.2833C67.2538 37.388 68.6248 34.2388 69.2096 30.7708C69.7881 27.3211 69.5142 23.9268 68.5321 20.5782C67.4921 17.033 65.7831 13.8046 63.6049 10.8158C62.6291 9.47638 61.5321 8.2216 60.4914 6.9245C60.4308 6.84872 60.3806 6.76406 60.3256 6.68282C60.3437 6.6562 60.3618 6.62889 60.3792 6.60158C60.573 6.67804 60.7918 6.72037 60.9563 6.83643C64.2873 9.18828 67.4963 11.6787 70.2669 14.6703C74.2614 18.9821 76.9498 23.9794 78.4595 29.5979C79.3373 32.8544 79.8491 36.195 79.9859 39.5603C80.0689 41.6207 79.8396 43.6742 79.5587 45.7155C79.0387 49.5051 78.0803 53.1841 76.588 56.7224C73.9576 62.9588 70.0118 68.2257 64.5173 72.3334C60.4231 75.3953 55.8501 77.4884 50.8561 78.7213C47.0329 79.6582 43.0979 80.084 39.1582 79.987C35.0696 79.899 31.0674 79.2497 27.2137 77.8994C15.5277 73.8033 7.41879 66.0384 2.7872 54.8C0.606271 49.5071 -0.264287 43.9616 0.0688807 38.2632C0.544237 30.157 3.31691 22.8812 8.38691 16.4357C11.3743 12.6311 14.9604 9.4559 19.0406 6.80981C19.152 6.75029 19.2687 6.70071 19.3891 6.66166L19.4553 6.76543Z" fill="#143d59"/>
</svg>
