<svg width="80" height="80" viewBox="0 0 80 80" fill="none" xmlns="http://www.w3.org/2000/svg">
<path d="M76.9678 20.0914C77.0834 20.2105 77.1837 20.3449 77.2661 20.491C77.5685 21.2149 77.8968 21.9317 78.1324 22.6798C78.5629 24.0508 78.9838 25.4289 79.3175 26.8269C80.0872 30.0453 79.9673 33.3349 79.9986 36.6159C80.0299 39.8969 79.6322 43.094 78.6855 46.2043C78.2768 47.5313 77.6679 48.7927 77.119 50.0699C76.7962 50.8208 76.4379 51.5575 76.0442 52.2729C75.6724 52.9598 75.2269 53.6026 74.8401 54.281C74.2952 55.241 73.7762 56.2152 73.2518 57.1851C73.1976 57.2786 73.1693 57.3859 73.1701 57.4952C73.1878 57.6815 73.1919 57.9418 73.3063 58.0257C73.4207 58.1096 73.6891 58.0626 73.8185 57.9673C74.8105 57.2599 75.6563 56.3516 76.3058 55.2964C77.2711 53.6846 78.2428 52.0823 79.2208 50.4894C79.3506 50.3103 79.4961 50.1441 79.6553 49.9931L79.7916 50.0357C79.8025 50.2548 79.8801 50.498 79.8147 50.6857C79.5314 51.4992 79.2385 52.3127 78.8884 53.0963C78.1283 54.8029 77.371 56.5096 76.4529 58.1423C75.4994 59.8489 74.4982 61.5072 73.3199 63.0488C66.9273 71.4014 58.7842 76.9082 48.726 79.0201C35.7786 81.7379 24.0231 78.7968 13.6094 70.2736C10.1413 67.4292 7.20722 64.0429 4.7417 60.2329C3.55281 58.3953 2.52173 56.4517 1.66048 54.4247C1.17147 53.2784 0.652483 52.1491 0.258817 50.9616C0.177316 50.6731 0.110923 50.3802 0.0599383 50.0841L0.20841 49.9746C0.377318 50.1424 0.591185 50.2818 0.709694 50.4823C1.13196 51.2034 1.5052 51.9543 1.92747 52.6739C2.28163 53.3076 2.67286 53.918 3.09893 54.5015C3.8958 55.5425 4.73353 56.5494 5.57807 57.5492C5.78201 57.7725 6.02774 57.9497 6.30002 58.0697C6.65009 58.2333 6.8694 58.0612 6.78495 57.6843C6.69913 57.3023 6.56152 56.935 6.3763 56.5935C5.96765 55.8383 5.50451 55.1144 5.08632 54.3649C4.29491 52.9427 3.45173 51.5532 2.75294 50.0884C0.835441 46.2671 -0.111455 41.9963 0.00272964 37.684C0.00272964 35.0742 -0.0422271 32.4574 0.0994381 29.8533C0.21386 27.72 0.690624 25.6294 1.3826 23.6099C1.74085 22.5618 2.17675 21.542 2.59084 20.5152C2.68944 20.3127 2.80188 20.1178 2.92729 19.9321L3.09484 19.9748C3.06623 20.3161 3.04716 20.6574 3.00902 20.9973C2.67257 24.1062 2.80879 27.2194 2.86191 30.3483C2.89897 32.4339 3.22753 34.5028 3.83722 36.4893C4.03522 37.1226 4.27602 37.7405 4.55781 38.3382C5.08224 39.4759 5.57671 40.635 6.20875 41.7045C7.02605 43.0812 7.93597 44.3967 8.85816 45.6995C9.16328 46.1261 9.60599 46.466 10.0201 46.8017C10.4029 47.1117 10.7638 46.9567 10.8592 46.4575C10.9174 46.2136 10.9127 45.9579 10.8456 45.7165C10.4614 44.6712 10.1304 43.5832 9.61961 42.6176C8.50128 40.5212 7.84199 38.2628 7.16091 35.9915C6.10114 32.456 5.91861 28.8478 6.11067 25.1914C6.17061 24.0693 6.18559 22.9372 6.35723 21.8322C6.51932 20.7897 6.85987 19.7785 7.12413 18.7531C7.33117 17.951 7.51643 17.1418 7.75345 16.3482C8.8963 12.5338 10.9259 9.25281 13.4568 6.30601C15.101 4.39031 16.8405 2.56421 18.5595 0.721042C18.8783 0.379715 19.2052 -0.0540473 19.8672 0.0540397C19.7187 0.348435 19.6084 0.605856 19.4667 0.840519C18.8006 1.93561 18.0405 2.97383 17.4711 4.12439C15.9728 7.14371 15.1228 10.3294 15.4551 13.7839C15.6241 15.7148 16.0259 17.6157 16.6511 19.4414C17.2278 21.0876 17.9227 22.6859 18.7298 24.2229C19.8536 26.3561 21.089 28.424 22.3504 30.4692C23.2345 31.9013 23.2712 33.3135 22.6814 34.8495C22.0194 36.5746 21.3887 38.3154 20.8221 40.0761C20.4058 41.3614 20.0642 42.6717 19.7991 43.9999C19.6356 44.8248 19.6451 45.6952 19.6465 46.5442C19.6465 48.962 19.5103 51.3883 19.7637 53.7733C19.9666 55.6918 20.5959 57.5748 21.1585 59.4322C21.431 60.3225 21.9867 61.1147 22.4008 61.9595C22.537 62.2311 22.5738 62.5639 22.7414 62.8042C23.59 64.0359 24.3977 65.3102 25.3499 66.4522C27.0049 68.4319 28.7076 70.3831 30.819 71.8565C32.7437 73.2062 34.7693 74.3468 37.0618 74.8787C37.7674 75.0437 37.8546 75.0209 37.924 74.2643C38.0521 72.8578 38.176 71.4469 38.221 70.0361C38.2755 68.3508 38.251 66.6627 38.2496 64.9759C38.2496 64.4824 38.2496 63.8709 37.7769 63.6959C37.5195 63.5992 37.0495 63.9335 36.7512 64.1753C36.0701 64.7285 35.4245 65.3443 34.7665 65.9345C34.5144 66.1822 34.2272 66.388 33.9152 66.5446C33.9339 66.3638 33.9756 66.1863 34.0392 66.017C34.4015 65.3329 34.8251 64.683 35.152 63.9818C35.5498 63.1285 36.0293 62.288 35.9693 61.2796C35.9366 60.7179 35.5035 60.5685 35.1044 60.4974C33.9424 60.2898 32.7696 60.149 31.6036 59.9613C30.804 59.8333 30.0071 59.6882 29.2157 59.5119C29.0482 59.4749 28.9147 59.2701 28.7662 59.1435C28.9092 58.9927 29.0386 58.7424 29.198 58.7069C30.5602 58.4082 31.9223 58.1665 33.2845 57.8735C34.1304 57.69 34.9681 57.461 35.8031 57.2264C36.2213 57.1083 36.3262 56.7912 36.175 56.3731C35.6874 55.039 35.2215 53.7007 34.7093 52.3752C34.4369 51.6741 34.0964 51.0057 33.828 50.3031C33.7013 49.9732 33.6727 49.6005 33.6005 49.2464L33.7735 49.1668C34.4546 50.0201 35.1357 50.8905 35.8168 51.7381C36.3344 52.3715 36.8688 52.9877 37.42 53.587C37.5481 53.7292 37.7715 53.7733 37.9513 53.8629C38.0221 53.6723 38.1461 53.486 38.157 53.294C38.2932 50.8336 38.4662 48.3732 38.5425 45.9085C38.8067 37.2331 39.0383 28.5435 39.2821 19.8624C39.3984 15.7295 39.5141 11.5971 39.6295 7.46513C39.6295 7.34566 39.6526 7.22477 39.6649 7.10531L39.8147 7.09249C39.9142 8.06243 40.0695 9.02952 40.1021 10.0009C40.2384 13.9333 40.3296 17.8685 40.44 21.8051C40.6343 28.7672 40.8314 35.728 41.0311 42.6873C41.1251 45.8161 41.2613 48.9549 41.3853 52.0894C41.4057 52.5957 41.4398 53.1034 41.5052 53.6055C41.5665 54.0734 41.8089 54.1743 42.1304 53.8487C42.6017 53.3694 43.0322 52.8531 43.4612 52.3226C44.0701 51.5803 44.6572 50.8151 45.2661 50.0713C45.4432 49.8565 45.6625 49.6816 45.9676 49.3858C45.9445 49.6631 45.9676 49.8054 45.9186 49.9177C45.5603 50.7909 45.2021 51.6656 44.8193 52.5274C44.4107 53.4575 43.9652 54.3763 43.5416 55.2993C43.4838 55.431 43.4382 55.5682 43.4054 55.7089C43.1466 56.777 43.3155 57.178 44.3385 57.4155C45.7252 57.7298 47.1377 57.9161 48.5339 58.1864C49.1796 58.3115 49.8171 58.4921 50.4492 58.6827C50.7004 58.7847 50.9421 58.9109 51.1711 59.0596L51.1834 59.263C50.8455 59.3867 50.5159 59.5659 50.1672 59.6228C48.5217 59.893 46.8694 60.1134 45.2253 60.3936C44.7853 60.4802 44.3604 60.6361 43.9652 60.8558C43.5266 61.0848 43.4272 61.4972 43.6451 61.9637C44.0838 62.901 44.5305 63.8353 44.9719 64.7711C45.2116 65.2831 45.4514 65.7965 45.6788 66.3142C45.696 66.4082 45.696 66.5047 45.6788 66.5986L45.514 66.7224C45.3887 66.5347 45.2934 66.3128 45.134 66.1663C44.3167 65.4182 43.5185 64.6261 42.633 63.9704C41.8157 63.3674 41.2709 63.7144 41.2831 64.7626C41.2927 65.9231 41.3499 67.0822 41.388 68.2427C41.4534 70.1997 41.5188 72.1566 41.5842 74.1135C41.6128 74.927 41.7109 75.0636 42.4859 74.937C43.1352 74.8279 43.7708 74.6433 44.3807 74.3866C47.6935 72.9957 50.614 71.016 53.0427 68.2327C54.3054 66.7849 55.5954 65.3571 56.6211 63.7272C57.7708 61.8997 58.7447 59.9513 59.2814 57.8123C59.6138 56.484 59.9107 55.1443 60.1873 53.8017C60.279 53.3214 60.3206 52.8322 60.3112 52.3425C60.3003 49.8224 60.3003 47.3023 60.2227 44.785C60.1995 44.0383 59.9802 43.2874 59.7827 42.5593C59.3332 40.8925 58.9259 39.2143 58.189 37.6413C57.8035 36.8193 57.5828 35.9133 57.3036 35.0387C57.0996 34.4509 56.9272 33.8517 56.7873 33.2439C56.6416 32.5328 56.8064 31.8985 57.2096 31.2528C58.1263 29.7865 58.9422 28.2505 59.7977 26.7444C60.1519 26.1272 60.5578 25.5398 60.8697 24.8955C61.4037 23.8047 61.8709 22.6798 62.3858 21.5804C63.5069 19.1826 64.0354 16.6141 64.4645 14.0087C64.7137 12.494 64.5435 11.0334 64.2683 9.53867C63.9509 7.81212 63.3461 6.19793 62.7073 4.6008C62.3667 3.74748 61.7837 3.00083 61.2852 2.22289C60.8765 1.58432 60.4284 0.972783 60.0047 0.34275C59.9652 0.283018 59.9448 0.140812 59.9789 0.108101C60.0442 0.0426802 60.1777 -0.0256172 60.2431 0.00424893C60.5156 0.123713 60.8043 0.233223 61.01 0.430908C62.0139 1.40796 63.0315 2.37221 63.9686 3.41752C65.1578 4.74301 66.3143 6.10549 67.4095 7.5163C68.3235 8.69388 69.2443 9.89706 69.9554 11.214C70.8707 12.905 71.7262 14.6458 72.1839 16.5643C72.6279 18.4345 73.2886 20.262 73.546 22.1607C73.8185 24.1517 73.7327 26.2097 73.8185 28.2377C73.9138 30.5232 73.5637 32.7631 73.0393 34.959C72.3466 37.8582 71.3413 40.666 70.0425 43.3287C69.6993 44.0327 69.4214 44.7736 69.1244 45.5004C69.0499 45.6452 69.0137 45.8082 69.0195 45.9725C69.0699 46.3096 69.1748 46.6381 69.2579 46.9681C69.5549 46.8685 69.939 46.86 70.1311 46.6523C70.8143 45.9131 71.4513 45.1288 72.0381 44.3043C72.6971 43.3781 73.2981 42.4086 73.8375 41.4016C75.1057 38.991 76.2458 36.5121 76.7253 33.7786C76.8751 32.8865 76.9489 31.9822 76.946 31.0764C76.9596 27.8495 76.9324 24.6225 76.9119 21.3955C76.9119 20.9831 76.8506 20.5693 76.8179 20.1568L76.9678 20.0914Z" fill="#143d59"/>
</svg>
